<svg id="svg" version="1.1" width="1000" height="200" xmlns="http://www.w3.org/2000/svg" xmlns:xlink="http://www.w3.org/1999/xlink" style="display: block;"><g id="svgg"><path id="path0" d="M15.023 8.889 C 14.077 10.239,14.077 68.561,15.023 69.911 C 15.860 71.107,27.083 71.304,28.051 70.139 C 28.483 69.619,28.643 66.605,28.800 55.976 L 29.000 42.473 30.242 40.936 C 33.548 36.848,38.909 36.685,42.319 40.569 C 44.250 42.768,44.395 43.945,44.398 57.420 C 44.399 66.544,44.527 69.967,44.880 70.320 C 45.669 71.109,56.964 70.978,57.771 70.171 C 58.302 69.641,58.403 68.222,58.419 61.071 L 58.438 52.600 59.430 55.684 C 63.632 68.734,77.848 75.412,90.446 70.253 C 92.603 69.370,92.709 69.362,93.149 70.067 C 93.790 71.094,105.158 71.185,106.171 70.171 C 106.939 69.404,107.143 26.987,106.386 25.574 C 105.810 24.497,94.076 24.381,93.016 25.441 C 92.427 26.030,92.202 26.014,90.287 25.251 C 77.256 20.062,62.639 27.437,59.033 41.019 C 58.521 42.944,58.499 42.966,58.239 41.800 C 55.042 27.470,43.180 20.020,31.300 24.884 L 28.800 25.907 28.800 17.843 C 28.800 7.247,29.351 8.000,21.600 8.000 C 15.900 8.000,15.619 8.038,15.023 8.889 M112.593 8.535 C 105.854 11.594,107.988 21.800,115.366 21.800 C 122.324 21.800,125.206 13.496,119.705 9.300 C 118.050 8.038,114.524 7.659,112.593 8.535 M151.830 8.879 C 150.872 10.246,150.871 69.214,151.829 70.171 C 152.905 71.248,164.154 71.086,164.927 69.984 L 165.498 69.167 166.851 69.965 C 177.400 76.189,193.736 69.134,198.284 56.391 C 205.586 35.932,186.742 17.917,166.300 25.815 C 165.648 26.067,165.600 25.542,165.594 18.143 C 165.586 7.440,166.141 8.228,158.519 8.090 C 152.630 7.983,152.442 8.005,151.830 8.879 M277.400 8.798 C 273.418 10.782,272.374 16.121,275.313 19.468 C 279.676 24.437,287.615 21.525,287.593 14.965 C 287.576 9.663,282.195 6.408,277.400 8.798 M26.800 19.800 C 26.800 25.190,26.892 29.600,27.003 29.600 C 27.115 29.600,27.955 29.058,28.869 28.396 C 35.123 23.866,45.116 24.964,50.807 30.807 C 55.697 35.828,56.387 38.899,56.394 55.700 L 56.400 68.800 51.425 68.800 L 46.450 68.800 46.325 55.900 C 46.205 43.563,46.162 42.930,45.335 41.400 C 41.882 35.012,33.792 33.832,29.212 39.047 C 26.827 41.764,26.800 41.954,26.800 55.987 L 26.800 68.800 21.600 68.800 L 16.400 68.800 16.400 39.400 L 16.400 10.000 21.600 10.000 L 26.800 10.000 26.800 19.800 M118.013 10.607 C 119.482 11.366,120.404 13.105,120.386 15.080 C 120.338 20.159,113.849 21.852,111.184 17.481 C 108.545 13.153,113.430 8.237,118.013 10.607 M163.600 19.800 C 163.600 25.190,163.694 29.600,163.808 29.600 C 163.922 29.600,164.687 29.178,165.508 28.663 C 177.335 21.231,193.364 27.970,196.971 41.890 C 201.392 58.950,185.466 74.666,169.500 68.999 C 167.200 68.183,167.208 68.368,169.246 63.291 L 170.895 59.182 172.348 59.491 C 184.190 62.012,192.380 48.738,184.435 39.901 C 178.750 33.578,168.605 34.912,164.823 42.480 L 163.600 44.928 163.600 56.864 L 163.600 68.800 158.400 68.800 L 153.200 68.800 153.200 39.400 L 153.200 10.000 158.400 10.000 L 163.600 10.000 163.600 19.800 M283.213 10.607 C 287.722 12.938,285.434 20.393,280.359 19.906 C 277.311 19.613,275.800 17.974,275.800 14.962 C 275.800 11.005,279.631 8.754,283.213 10.607 M142.800 24.350 C 141.590 24.739,140.180 25.284,139.667 25.561 C 138.888 25.980,138.618 25.959,138.035 25.432 C 136.876 24.383,125.385 24.506,124.814 25.574 C 124.049 27.003,124.262 69.405,125.039 70.182 C 125.578 70.721,126.620 70.803,131.727 70.710 C 139.477 70.569,138.787 71.920,138.794 56.887 C 138.801 44.056,138.849 43.739,141.212 41.047 C 142.830 39.205,145.001 38.062,147.499 37.739 C 150.705 37.323,150.800 37.116,150.800 30.567 C 150.800 23.130,149.570 22.174,142.800 24.350 M219.000 24.171 C 218.120 24.465,216.743 24.991,215.940 25.341 C 214.657 25.900,214.420 25.906,213.991 25.389 C 213.350 24.616,201.641 24.519,200.880 25.280 C 200.187 25.973,200.187 69.627,200.880 70.320 C 201.467 70.907,212.687 70.985,213.600 70.409 C 214.105 70.090,214.232 68.054,214.400 57.515 C 214.628 43.268,214.638 43.219,218.187 40.095 C 220.041 38.463,225.247 36.684,225.195 37.700 C 225.192 37.755,224.820 38.970,224.368 40.400 C 218.390 59.324,236.071 77.038,254.531 70.619 C 257.372 69.631,257.705 69.590,258.133 70.176 C 259.033 71.407,270.827 70.898,271.483 69.600 C 271.871 68.832,271.988 63.764,271.988 47.800 C 271.988 31.836,271.871 26.768,271.483 26.000 C 270.838 24.724,259.319 24.206,258.006 25.395 C 257.389 25.953,257.064 25.911,254.562 24.952 C 245.429 21.451,234.632 24.563,228.353 32.508 L 226.800 34.472 226.794 30.136 C 226.786 24.256,226.543 23.824,223.190 23.718 C 221.765 23.674,219.880 23.877,219.000 24.171 M308.393 24.015 C 307.619 24.199,306.146 24.709,305.120 25.149 C 303.513 25.838,303.189 25.869,302.778 25.374 C 302.149 24.615,290.429 24.531,289.680 25.280 C 288.987 25.973,288.987 69.627,289.680 70.320 C 290.382 71.022,302.145 70.990,302.730 70.284 C 303.010 69.947,303.201 65.192,303.279 56.584 C 303.419 41.378,303.455 41.204,306.997 39.005 C 310.847 36.614,315.644 37.852,317.890 41.817 C 318.768 43.367,318.787 43.673,318.793 56.471 C 318.799 67.815,318.883 69.626,319.429 70.171 C 320.559 71.302,331.758 71.080,332.577 69.911 C 333.471 68.635,333.491 45.590,332.602 40.947 C 330.310 28.965,319.470 21.383,308.393 24.015 M109.039 25.418 C 108.066 26.391,108.066 69.209,109.039 70.182 C 110.251 71.394,121.629 70.894,122.283 69.600 C 122.671 68.832,122.788 63.764,122.788 47.800 C 122.788 31.836,122.671 26.768,122.283 26.000 C 121.629 24.706,110.251 24.206,109.039 25.418 M274.229 25.429 C 273.274 26.383,273.274 69.217,274.229 70.171 C 275.036 70.978,286.331 71.109,287.120 70.320 C 287.813 69.627,287.813 25.973,287.120 25.280 C 286.331 24.491,275.036 24.622,274.229 25.429 M89.097 26.911 C 90.471 27.478,92.119 28.315,92.759 28.771 C 94.302 29.870,94.400 29.836,94.400 28.200 L 94.400 26.800 99.600 26.800 L 104.800 26.800 104.800 47.800 L 104.800 68.800 99.600 68.800 L 94.400 68.800 94.400 67.400 C 94.400 65.730,94.393 65.728,92.465 67.004 C 81.857 74.024,65.935 68.286,61.590 55.877 C 55.245 37.756,72.178 19.925,89.097 26.911 M148.800 30.555 L 148.800 35.509 146.912 35.792 C 143.009 36.378,139.242 39.261,137.569 42.945 C 136.887 44.446,136.817 45.726,136.809 56.700 L 136.800 68.800 131.600 68.800 L 126.400 68.800 126.400 47.800 L 126.400 26.800 131.600 26.800 L 136.800 26.800 136.800 28.171 L 136.800 29.542 139.100 28.155 C 141.899 26.468,144.377 25.665,146.900 25.628 L 148.800 25.600 148.800 30.555 M224.400 30.549 L 224.400 35.498 222.717 35.767 C 218.778 36.397,215.412 38.942,213.541 42.706 C 212.625 44.549,212.597 44.925,212.474 56.700 L 212.347 68.800 207.374 68.800 L 202.400 68.800 202.400 47.800 L 202.400 26.800 207.400 26.800 L 212.400 26.800 212.400 28.200 C 212.400 29.901,212.203 29.902,215.052 28.184 C 217.826 26.512,220.355 25.666,222.700 25.628 L 224.400 25.600 224.400 30.549 M251.280 26.050 C 253.467 26.514,257.667 28.420,258.900 29.507 C 259.553 30.083,259.600 30.013,259.600 28.462 L 259.600 26.800 264.600 26.800 L 269.600 26.800 269.600 47.800 L 269.600 68.800 264.600 68.800 L 259.600 68.800 259.600 67.209 L 259.600 65.618 257.720 66.810 C 247.410 73.349,233.244 69.358,227.863 58.400 C 219.408 41.183,233.149 22.200,251.280 26.050 M320.148 27.117 C 324.939 29.359,328.407 33.516,330.229 39.200 C 330.830 41.074,330.959 43.429,331.103 55.100 L 331.271 68.800 326.036 68.800 L 320.800 68.800 320.800 56.346 C 320.800 42.031,320.713 41.495,317.954 38.724 C 312.645 33.392,303.915 35.507,301.766 42.646 C 301.332 44.090,301.200 47.350,301.200 56.664 L 301.200 68.800 296.200 68.800 L 291.200 68.800 291.200 47.800 L 291.200 26.800 296.200 26.800 L 301.200 26.800 301.200 28.200 C 301.200 29.553,301.686 30.032,302.205 29.192 C 302.531 28.664,306.147 26.821,308.200 26.136 C 311.112 25.165,317.013 25.650,320.148 27.117 M120.800 47.800 L 120.800 68.800 115.600 68.800 L 110.400 68.800 110.400 47.800 L 110.400 26.800 115.600 26.800 L 120.800 26.800 120.800 47.800 M285.600 47.800 L 285.600 68.800 280.600 68.800 L 275.600 68.800 275.600 47.800 L 275.600 26.800 280.600 26.800 L 285.600 26.800 285.600 47.800 M79.306 36.200 C 70.657 38.599,67.544 49.003,73.496 55.622 C 81.121 64.103,94.975 58.561,94.323 47.291 C 93.861 39.315,86.821 34.115,79.306 36.200 M244.859 36.011 C 235.183 38.018,232.241 51.263,240.144 57.236 C 248.460 63.521,260.421 57.028,259.488 46.734 C 258.842 39.614,251.927 34.545,244.859 36.011 M84.680 38.017 C 95.824 40.438,94.514 56.893,83.127 57.536 C 69.523 58.305,68.699 38.947,82.280 37.646 C 82.544 37.621,83.624 37.788,84.680 38.017 M252.051 38.831 C 255.242 40.448,257.600 44.358,257.600 48.031 C 257.600 57.620,244.099 61.251,239.015 53.028 C 233.784 44.567,243.180 34.333,252.051 38.831 M179.342 38.550 C 190.565 43.239,185.277 59.708,173.247 57.530 C 169.705 56.888,169.556 57.008,167.566 62.089 L 165.800 66.596 165.693 56.016 L 165.586 45.436 166.603 43.358 C 168.769 38.932,174.804 36.654,179.342 38.550 M351.320 46.345 C 345.004 48.527,341.152 55.379,342.989 61.165 C 343.253 61.997,343.196 62.077,342.546 61.781 C 338.246 59.819,334.400 61.605,334.400 65.563 C 334.400 69.887,335.415 70.713,340.233 70.314 C 343.063 70.079,343.343 69.747,343.533 66.392 L 343.690 63.599 344.831 65.322 C 348.567 70.962,356.526 72.390,362.366 68.467 L 364.086 67.312 365.983 68.589 C 368.580 70.336,372.010 71.041,374.850 70.410 C 376.032 70.148,378.620 69.950,380.600 69.971 C 385.786 70.025,385.380 70.949,385.519 58.774 C 385.669 45.649,385.949 46.338,380.474 46.371 C 378.343 46.385,375.389 46.286,373.908 46.152 C 370.399 45.834,369.006 46.127,366.311 47.750 L 364.088 49.089 362.377 47.940 C 358.949 45.638,355.011 45.069,351.320 46.345 M359.839 48.718 C 362.640 50.147,362.780 50.609,360.960 52.428 L 359.382 54.006 357.806 53.203 C 353.743 51.132,349.800 53.593,349.800 58.200 C 349.800 62.807,353.743 65.268,357.807 63.197 L 359.383 62.393 361.095 64.105 L 362.807 65.817 361.107 66.919 C 353.880 71.605,344.676 66.707,344.725 58.201 C 344.770 50.399,353.005 45.232,359.839 48.718 M377.100 48.982 C 378.716 49.906,378.800 49.915,378.800 49.177 C 378.800 48.494,379.091 48.400,381.200 48.400 L 383.600 48.400 383.600 58.200 L 383.600 68.000 381.200 68.000 C 379.333 68.000,378.800 67.867,378.800 67.400 C 378.800 66.662,378.423 66.656,377.467 67.381 C 373.570 70.334,366.491 68.175,363.917 63.247 C 359.306 54.420,368.746 44.205,377.100 48.982 M370.412 53.312 C 368.766 54.145,367.600 56.273,367.600 58.445 C 367.600 63.341,373.822 65.616,377.231 61.967 C 381.345 57.562,375.834 50.568,370.412 53.312 M357.658 55.452 C 358.107 55.859,358.816 56.030,359.584 55.917 L 360.800 55.739 360.800 58.200 L 360.800 60.661 359.618 60.488 C 358.820 60.371,358.086 60.589,357.364 61.157 C 354.157 63.680,349.884 59.427,352.243 56.060 C 353.455 54.330,356.091 54.034,357.658 55.452 M375.501 55.700 C 378.862 59.301,374.165 63.970,370.500 60.671 C 369.223 59.522,369.264 57.100,370.582 55.782 C 371.898 54.466,374.311 54.426,375.501 55.700 M341.600 65.800 L 341.600 68.400 339.000 68.400 L 336.400 68.400 336.400 66.067 C 336.400 63.199,336.399 63.200,339.267 63.200 L 341.600 63.200 341.600 65.800 " stroke="none" fill="#ffffff" fill-rule="evenodd"></path><path id="path1" d="M16.400 39.400 L 16.400 68.800 21.600 68.800 L 26.800 68.800 26.809 55.900 C 26.819 41.148,26.839 41.042,30.174 38.106 C 35.427 33.483,43.442 35.716,45.823 42.465 C 46.278 43.754,46.400 46.714,46.400 56.450 L 46.400 68.800 51.400 68.800 L 56.400 68.800 56.400 55.864 C 56.400 41.458,56.066 38.910,53.614 34.625 C 48.406 25.523,36.224 22.853,28.117 29.036 L 26.800 30.041 26.800 20.020 L 26.800 10.000 21.600 10.000 L 16.400 10.000 16.400 39.400 M112.759 10.913 C 108.576 13.723,110.559 19.800,115.660 19.800 C 117.460 19.800,117.799 19.650,119.031 18.306 C 123.042 13.929,117.680 7.607,112.759 10.913 M153.200 39.400 L 153.200 68.800 158.169 68.800 L 163.137 68.800 163.269 56.900 C 163.392 45.742,163.453 44.885,164.255 43.151 C 169.956 30.820,188.350 35.132,187.503 48.600 C 187.019 56.281,179.759 61.437,172.175 59.485 L 170.951 59.170 169.271 63.285 C 167.179 68.411,167.149 68.143,169.900 69.045 C 183.563 73.525,197.600 62.759,197.600 47.800 C 197.600 30.802,179.930 20.108,165.852 28.586 C 164.560 29.364,163.435 30.000,163.352 30.000 C 163.268 30.000,163.200 25.500,163.200 20.000 L 163.200 10.000 158.200 10.000 L 153.200 10.000 153.200 39.400 M278.412 10.489 C 275.899 11.818,274.942 15.117,276.384 17.481 C 279.166 22.044,285.986 19.768,285.460 14.451 C 285.133 11.146,281.274 8.976,278.412 10.489 M76.600 26.156 C 54.739 31.494,55.147 64.761,77.131 69.420 C 82.934 70.650,90.308 69.179,93.694 66.115 C 94.358 65.514,94.400 65.575,94.400 67.138 L 94.400 68.800 99.600 68.800 L 104.800 68.800 104.800 47.800 L 104.800 26.800 99.600 26.800 L 94.400 26.800 94.400 28.462 C 94.400 30.013,94.353 30.083,93.700 29.508 C 90.139 26.372,82.138 24.804,76.600 26.156 M143.043 26.437 C 141.747 26.883,139.722 27.865,138.543 28.619 L 136.400 29.990 136.400 28.395 L 136.400 26.800 131.400 26.800 L 126.400 26.800 126.400 47.800 L 126.400 68.800 131.373 68.800 L 136.347 68.800 136.473 56.900 C 136.600 45.026,136.602 44.995,137.643 42.800 C 139.542 38.796,143.969 35.600,147.615 35.600 L 148.800 35.600 148.800 30.600 L 148.800 25.600 147.100 25.613 C 146.165 25.621,144.340 25.992,143.043 26.437 M218.934 26.426 C 217.578 26.856,215.553 27.824,214.434 28.577 L 212.400 29.946 212.400 28.373 L 212.400 26.800 207.400 26.800 L 202.400 26.800 202.400 47.800 L 202.400 68.800 207.400 68.800 L 212.400 68.800 212.400 57.473 C 212.400 41.269,214.464 36.853,222.557 35.744 L 224.400 35.491 224.400 30.546 L 224.400 25.600 222.900 25.622 C 222.075 25.635,220.290 25.997,218.934 26.426 M241.454 26.208 C 226.077 30.106,220.179 49.743,230.558 62.484 C 236.810 70.160,248.757 72.197,257.300 67.045 L 259.600 65.658 259.600 67.229 L 259.600 68.800 264.600 68.800 L 269.600 68.800 269.600 47.800 L 269.600 26.800 264.600 26.800 L 259.600 26.800 259.600 28.391 L 259.600 29.982 257.720 28.790 C 253.238 25.948,246.622 24.897,241.454 26.208 M308.400 26.171 C 306.256 26.766,304.276 27.738,302.500 29.068 L 301.200 30.041 301.200 28.420 L 301.200 26.800 296.200 26.800 L 291.200 26.800 291.200 47.800 L 291.200 68.800 296.180 68.800 L 301.159 68.800 301.280 55.700 L 301.400 42.600 302.400 40.819 C 305.714 34.915,313.567 33.949,318.280 38.865 C 320.737 41.429,320.800 41.856,320.800 55.987 L 320.800 68.800 325.800 68.800 L 330.800 68.800 330.795 55.300 C 330.790 40.765,330.659 39.573,328.606 35.376 C 325.020 28.047,316.169 24.015,308.400 26.171 M110.400 47.800 L 110.400 68.800 115.400 68.800 L 120.400 68.800 120.400 47.800 L 120.400 26.800 115.400 26.800 L 110.400 26.800 110.400 47.800 M275.600 47.800 L 275.600 68.800 280.600 68.800 L 285.600 68.800 285.600 47.800 L 285.600 26.800 280.600 26.800 L 275.600 26.800 275.600 47.800 M87.273 36.703 C 94.773 40.020,96.891 49.869,91.409 55.937 C 84.442 63.649,71.227 59.141,70.495 48.803 C 69.838 39.510,78.879 32.989,87.273 36.703 M252.484 36.708 C 263.160 41.430,261.250 57.550,249.775 59.579 C 234.716 62.243,229.653 40.956,244.200 36.135 C 246.325 35.431,250.204 35.699,252.484 36.708 M351.600 48.382 C 344.500 50.821,342.457 59.984,347.792 65.462 C 351.531 69.303,357.803 69.827,361.493 66.608 L 362.600 65.643 360.962 63.989 L 359.324 62.336 357.962 63.167 C 352.822 66.300,346.812 59.375,350.681 54.776 C 352.669 52.414,355.173 51.861,357.806 53.203 L 359.382 54.006 360.991 52.380 L 362.600 50.753 361.400 49.770 C 358.853 47.683,355.157 47.160,351.600 48.382 M368.585 48.751 C 361.123 52.141,360.828 63.751,368.111 67.380 C 370.747 68.694,374.471 68.788,376.800 67.600 C 378.679 66.641,378.800 66.629,378.800 67.400 C 378.800 67.867,379.333 68.000,381.200 68.000 L 383.600 68.000 383.600 58.200 L 383.600 48.400 381.200 48.400 C 379.125 48.400,378.800 48.501,378.800 49.146 C 378.800 49.845,378.683 49.832,376.932 48.946 C 374.586 47.758,370.957 47.674,368.585 48.751 M376.041 53.428 C 379.233 55.058,379.634 60.154,376.762 62.571 C 371.336 67.136,364.023 59.160,369.139 54.258 C 371.078 52.401,373.467 52.114,376.041 53.428 M336.800 66.000 L 336.800 68.400 339.200 68.400 L 341.600 68.400 341.600 66.000 L 341.600 63.600 339.200 63.600 L 336.800 63.600 336.800 66.000 " stroke="none" fill="#ff004b" fill-rule="evenodd"></path><path id="path2" d="M330.978 56.800 C 330.978 63.510,331.032 66.255,331.099 62.900 C 331.166 59.545,331.166 54.055,331.099 50.700 C 331.032 47.345,330.978 50.090,330.978 56.800 " stroke="none" fill="#ff007b" fill-rule="evenodd"></path><path id="path3" d="M163.282 19.900 C 163.237 25.455,163.335 30.000,163.500 30.001 C 163.665 30.001,163.754 26.986,163.697 23.301 C 163.507 10.902,163.365 9.737,163.282 19.900 M120.586 47.800 C 120.586 59.460,120.637 64.172,120.700 58.272 C 120.762 52.371,120.762 42.831,120.700 37.072 C 120.637 31.312,120.586 36.140,120.586 47.800 M163.375 58.200 C 163.375 64.140,163.431 66.626,163.499 63.724 C 163.567 60.822,163.567 55.962,163.499 52.924 C 163.431 49.886,163.375 52.260,163.375 58.200 " stroke="none" fill="#ff76ad" fill-rule="evenodd"></path><path id="path4" d="M136.509 28.400 C 136.509 29.390,136.587 29.795,136.682 29.300 C 136.778 28.805,136.778 27.995,136.682 27.500 C 136.587 27.005,136.509 27.410,136.509 28.400 M136.575 58.000 C 136.575 64.050,136.631 66.525,136.699 63.500 C 136.767 60.475,136.767 55.525,136.699 52.500 C 136.631 49.475,136.575 51.950,136.575 58.000 M336.565 63.748 C 336.449 64.049,336.421 65.264,336.503 66.448 L 336.652 68.600 336.726 66.119 L 336.800 63.638 339.300 63.496 L 341.800 63.354 339.287 63.277 C 337.474 63.221,336.716 63.352,336.565 63.748 " stroke="none" fill="#ffaccd" fill-rule="evenodd"></path></g></svg>