<!DOCTYPE svg PUBLIC "-//W3C//DTD SVG 20010904//EN" "http://www.w3.org/TR/2001/REC-SVG-20010904/DTD/svg10.dtd">
<svg version="1.0" xmlns="http://www.w3.org/2000/svg" width="800px" height="160px" viewBox="0 0 8000 1600" preserveAspectRatio="xMidYMid meet">
<g id="layer1" fill="#fff0f5" stroke="none">
 <path d="M1733 1526 c-35 -13 -88 -39 -119 -57 -65 -39 -174 -154 -203 -213 l-20 -41 -1 128 c0 122 -1 129 -25 152 -23 24 -29 25 -158 25 -118 0 -138 -2 -158 -19 l-24 -19 -5 -315 -5 -315 -25 -27 c-41 -44 -77 -58 -137 -53 -62 5 -100 29 -125 79 -16 30 -18 68 -18 325 0 371 14 344 -179 344 -107 0 -141 -3 -159 -16 l-22 -15 0 -698 0 -698 23 -21 c22 -20 34 -22 156 -22 130 0 132 0 156 26 25 26 25 30 25 200 0 96 2 174 4 174 2 0 19 -6 37 -14 151 -63 338 -24 467 98 66 62 101 112 132 190 l23 59 22 -49 c32 -72 107 -166 171 -214 76 -57 150 -89 245 -106 92 -16 184 -7 276 28 48 18 55 18 75 4 17 -12 50 -16 145 -16 120 0 123 1 154 28 l31 28 29 -29 29 -29 131 4 c126 3 132 4 152 28 l21 25 27 -27 c27 -28 30 -28 151 -28 97 0 128 3 146 16 21 15 27 14 70 -4 70 -30 165 -47 190 -33 11 6 23 11 26 11 3 0 6 -74 6 -164 l0 -165 26 -20 c24 -19 40 -21 156 -21 124 0 130 1 153 25 25 24 25 26 25 204 l0 179 52 -20 c65 -25 203 -34 283 -19 158 30 322 159 393 311 17 35 17 34 22 -108 5 -142 5 -144 33 -168 26 -23 36 -24 150 -24 88 0 130 4 150 15 25 13 32 13 57 0 45 -23 159 -47 191 -40 51 11 69 47 69 136 l0 79 59 -59 c76 -76 177 -127 292 -147 74 -12 95 -13 168 0 45 8 100 23 120 33 37 19 39 19 61 1 19 -15 41 -18 146 -18 116 0 125 1 151 24 l28 25 23 -22 c22 -20 34 -22 162 -22 122 0 140 2 159 19 21 19 21 19 42 0 30 -27 257 -34 295 -9 24 15 28 15 67 -3 74 -34 164 -44 250 -28 163 31 281 128 359 292 l33 69 3 355 c4 431 22 390 -175 390 -129 0 -135 -1 -158 -25 l-25 -24 -1 -293 c0 -161 -2 -301 -4 -312 -5 -26 -45 -66 -82 -82 -72 -31 -159 -7 -200 55 -23 33 -23 39 -23 333 l0 299 -25 24 c-23 24 -29 25 -160 25 -135 0 -136 0 -162 -27 -15 -16 -23 -23 -20 -17 4 7 -4 19 -18 28 -19 13 -52 16 -157 16 -116 0 -136 -3 -158 -20 -25 -19 -25 -19 -48 3 -22 20 -33 22 -157 22 -110 0 -137 -3 -150 -16 -15 -15 -22 -14 -87 12 -61 25 -83 29 -171 29 -86 0 -113 -4 -172 -27 -167 -63 -289 -186 -349 -351 -40 -112 -43 -229 -10 -374 5 -23 3 -28 -13 -28 -37 0 -108 45 -138 88 l-30 44 -5 288 c-5 265 -7 290 -24 309 -18 19 -29 21 -155 21 -191 -1 -184 5 -191 -185 l-5 -147 -29 62 c-35 73 -137 183 -210 225 -96 56 -167 75 -280 75 -91 0 -113 -4 -173 -28 -68 -28 -71 -28 -93 -10 -19 15 -41 18 -140 18 -113 0 -120 -1 -149 -26 l-31 -26 0 -363 0 -363 -32 9 c-18 4 -49 11 -69 14 -50 8 -122 72 -137 123 -8 26 -12 130 -12 306 l0 267 -25 24 c-23 24 -29 25 -158 25 -99 0 -138 -4 -153 -14 -18 -14 -19 -34 -24 -508 l-5 -493 -3 486 -2 486 -23 21 c-22 20 -33 22 -159 22 -134 0 -137 0 -156 -25 l-20 -25 -30 30 -30 30 -120 0 c-103 0 -123 -3 -144 -20 l-25 -19 -73 29 c-64 27 -84 30 -174 29 -80 0 -114 -5 -163 -23z m376 -102 c44 -23 83 -39 86 -36 3 3 5 18 5 34 l0 28 105 0 105 0 0 -470 0 -470 -105 0 -105 0 0 28 c0 16 -3 31 -6 35 -3 3 -28 -7 -54 -23 -233 -137 -535 -57 -657 175 -114 217 -70 482 107 643 29 25 153 88 190 95 14 3 75 5 136 4 110 -2 113 -3 193 -43z m2163 3 c243 -121 335 -430 206 -688 -68 -137 -190 -224 -345 -248 -116 -18 -250 10 -334 70 -16 11 -33 17 -39 14 -6 -4 -10 -91 -10 -231 l0 -224 -105 0 -105 0 0 665 0 665 104 0 105 0 3 -267 c3 -304 7 -320 87 -399 117 -117 287 -118 401 -4 60 60 85 119 84 205 0 82 -23 134 -85 196 -55 55 -115 80 -193 81 -35 0 -72 -3 -83 -6 -17 -6 -24 4 -50 66 -32 77 -46 118 -41 118 2 0 21 7 43 15 29 11 73 14 160 12 117 -2 122 -3 197 -40z m1605 -3 c45 -23 85 -39 88 -36 3 3 5 18 5 34 l0 28 105 0 105 0 0 -470 0 -470 -105 0 -105 0 0 29 c0 17 -4 32 -8 35 -4 2 -28 -8 -53 -24 -167 -104 -405 -85 -555 44 -100 85 -164 234 -164 379 0 229 116 402 322 478 43 16 74 19 168 17 112 -3 117 -4 197 -44z m-5245 -266 c3 -278 4 -295 25 -333 76 -141 242 -175 359 -72 82 72 84 80 84 410 l0 287 105 0 105 0 0 -298 c0 -322 -5 -363 -56 -463 -74 -146 -246 -230 -410 -200 -71 13 -135 40 -171 73 -12 11 -26 17 -32 13 -7 -4 -11 -81 -11 -231 l0 -224 -105 0 -105 0 0 665 0 665 104 0 105 0 3 -292z m2148 -178 l0 -470 -105 0 -105 0 0 470 0 470 105 0 105 0 0 -470z m360 216 c0 -299 6 -328 82 -412 48 -52 128 -94 178 -94 19 0 20 -7 20 -106 l0 -107 -42 6 c-70 10 -111 25 -170 61 -31 19 -59 31 -62 28 -3 -3 -6 -18 -6 -34 l0 -28 -105 0 -105 0 0 470 0 470 105 0 105 0 0 -254z m1730 14 c0 -134 5 -261 11 -290 22 -104 114 -198 214 -221 l55 -12 0 -104 c0 -100 -1 -103 -22 -103 -57 0 -164 41 -217 81 -29 23 -41 17 -41 -22 l0 -29 -105 0 -105 0 0 470 0 470 105 0 105 0 0 -240z m1680 -230 l0 -470 -105 0 -105 0 0 470 0 470 105 0 105 0 0 -470z m350 194 c0 -306 4 -331 58 -394 71 -84 188 -110 278 -62 52 27 111 94 124 141 5 20 10 161 10 314 l0 277 105 0 105 0 0 -297 c0 -320 -4 -356 -54 -457 -32 -65 -105 -140 -166 -171 -61 -31 -161 -48 -230 -40 -57 7 -140 39 -189 74 -32 23 -41 19 -41 -21 l0 -28 -105 0 -105 0 0 470 0 470 105 0 105 0 0 -276z m-3037 69 c0 -6 10 -24 22 -40 20 -25 28 -27 71 -23 156 13 213 -6 265 -88 25 -40 28 -52 26 -118 -2 -63 -7 -79 -32 -115 -44 -62 -86 -82 -170 -83 -56 -1 -78 4 -112 23 -89 51 -103 96 -103 341 1 177 1 183 17 150 8 -19 16 -40 16 -47z"/>
 <path d="M1817 1246 c-135 -49 -218 -218 -173 -354 33 -100 140 -186 245 -199 111 -13 236 62 287 172 65 138 -2 309 -146 374 -53 24 -155 27 -213 7z m204 -82 c40 -20 87 -80 95 -119 3 -20 4 -62 2 -94 -8 -106 -74 -170 -184 -179 -54 -4 -71 -1 -116 21 -74 37 -100 78 -106 170 -5 86 16 139 72 182 55 42 173 51 237 19z"/>
 <path d="M5587 1246 c-146 -54 -221 -213 -170 -362 24 -70 110 -154 182 -177 67 -21 105 -21 171 0 62 20 141 88 173 147 17 33 22 58 22 126 0 75 -3 91 -27 131 -30 51 -80 99 -131 126 -43 22 -170 28 -220 9z m207 -84 c16 -10 43 -34 60 -55 27 -34 31 -48 34 -113 6 -107 -27 -166 -112 -205 -90 -41 -214 -9 -265 67 -27 39 -39 124 -27 189 7 37 53 97 90 117 51 28 171 28 220 0z"/>
 <path d="M2623 403 c-12 -2 -41 -22 -66 -43 -86 -76 -86 -181 -2 -259 76 -70 157 -68 236 6 38 36 49 53 55 88 9 62 -3 102 -45 148 -53 58 -101 75 -178 60z m112 -89 c14 -9 29 -33 35 -56 16 -57 -10 -108 -65 -127 -36 -12 -45 -12 -77 3 -19 9 -40 28 -47 42 -23 52 -7 123 33 142 32 16 94 14 121 -4z"/>
 <path d="M6395 403 c-32 -8 -75 -43 -106 -86 -33 -45 -39 -109 -15 -155 19 -37 75 -89 109 -101 108 -41 237 52 237 169 0 112 -115 200 -225 173z m117 -98 c54 -54 39 -143 -28 -171 -74 -31 -144 15 -144 95 1 69 33 100 106 101 31 0 48 -6 66 -25z"/>
 </g>
<g id="layer2" fill="#ff014f" stroke="none">
 <path d="M1780 1483 c-44 -9 -144 -59 -187 -94 -241 -196 -259 -562 -38 -785 146 -147 371 -183 557 -89 l67 34 3 -27 3 -27 120 0 120 0 0 485 0 485 -120 0 -120 0 -3 -28 c-2 -16 -6 -27 -10 -25 -131 69 -144 73 -257 74 -60 1 -121 0 -135 -3z m255 -267 c95 -45 144 -126 145 -236 0 -205 -204 -329 -388 -236 -199 101 -181 408 27 482 60 22 159 17 216 -10z"/>
 <path d="M3905 1472 c-27 -10 -51 -25 -52 -33 -2 -8 15 -57 36 -109 35 -84 42 -95 63 -93 139 13 214 -5 276 -67 54 -54 76 -106 76 -185 1 -159 -108 -270 -264 -268 -77 1 -125 20 -182 71 -78 70 -82 90 -88 402 l-5 275 -120 0 -120 0 -3 -669 c-1 -494 1 -672 9 -683 9 -10 38 -13 123 -11 l111 3 3 228 2 228 29 -20 c84 -60 218 -88 334 -70 102 16 181 55 260 129 262 245 199 687 -121 847 -75 37 -80 38 -197 40 -96 3 -130 0 -170 -15z"/>
 <path d="M5512 1471 c-80 -30 -137 -66 -196 -126 -206 -209 -194 -562 26 -760 152 -136 396 -162 560 -59 20 13 40 24 42 24 3 0 6 -12 8 -28 l3 -27 120 0 120 0 0 485 0 485 -120 0 -120 0 -3 -28 c-2 -16 -6 -27 -10 -25 -121 65 -146 72 -262 75 -95 3 -124 0 -168 -16z m312 -265 c88 -52 132 -141 123 -251 -8 -110 -75 -195 -178 -228 -101 -33 -196 -11 -270 63 -135 135 -88 371 87 436 64 23 181 14 238 -20z"/>
 <path d="M405 1458 c-3 -7 -4 -314 -3 -683 l3 -670 120 0 120 0 5 229 c4 201 7 227 19 212 24 -29 104 -64 175 -77 81 -15 172 -1 249 37 107 55 201 182 227 308 6 31 9 169 8 351 l-3 300 -120 0 -120 0 -5 -305 c-5 -282 -7 -308 -25 -339 -84 -143 -295 -143 -375 -1 -25 45 -25 48 -30 345 l-5 300 -118 3 c-88 2 -119 -1 -122 -10z"/>
 <path d="M2555 1458 c-3 -7 -4 -227 -3 -488 l3 -475 120 0 120 0 0 485 0 485 -118 3 c-88 2 -119 -1 -122 -10z"/>
 <path d="M2915 1458 c-3 -7 -4 -227 -3 -488 l3 -475 120 0 120 0 3 27 3 27 62 -34 c65 -35 172 -63 201 -52 15 6 16 21 14 124 l-3 117 -42 8 c-66 11 -125 41 -161 82 -64 73 -66 83 -72 391 l-5 280 -118 3 c-88 2 -119 -1 -122 -10z"/>
 <path d="M4645 1458 c-3 -7 -4 -227 -3 -488 l3 -475 120 0 120 0 3 28 c3 27 16 35 27 17 12 -19 101 -58 162 -71 94 -19 94 -19 91 117 l-3 116 -67 17 c-85 22 -134 60 -173 136 l-30 59 -5 275 -5 276 -118 3 c-88 2 -119 -1 -122 -10z"/>
 <path d="M6325 1458 c-3 -7 -4 -227 -3 -488 l3 -475 120 0 120 0 3 474 c1 341 -1 478 -9 487 -16 19 -227 20 -234 2z"/>
 <path d="M6675 1458 c-3 -7 -4 -227 -3 -488 l3 -475 120 0 120 0 3 26 3 27 73 -38 c118 -61 253 -63 368 -4 67 34 152 124 187 198 48 101 52 144 49 466 l-3 295 -120 0 -120 0 -5 -307 -5 -306 -30 -44 c-99 -140 -311 -119 -381 37 -5 11 -11 155 -14 320 l-5 300 -118 3 c-88 2 -119 -1 -122 -10z"/>
 <path d="M2608 334 c-83 -45 -73 -175 16 -218 90 -43 192 46 166 144 -21 76 -111 113 -182 74z"/>
 <path d="M6379 335 c-59 -32 -78 -120 -39 -175 43 -61 119 -73 176 -28 62 49 65 127 7 184 -28 28 -41 34 -76 34 -23 -1 -54 -7 -68 -15z"/>
 </g>

</svg>