<!DOCTYPE svg PUBLIC "-//W3C//DTD SVG 20010904//EN" "http://www.w3.org/TR/2001/REC-SVG-20010904/DTD/svg10.dtd">
<svg version="1.0" xmlns="http://www.w3.org/2000/svg" width="257px" height="257px" viewBox="0 0 2570 2570" preserveAspectRatio="xMidYMid meet">
<g id="layer1" fill="#303030" stroke="none">
 <path d="M1354 1436 c-41 -40 -44 -47 -44 -95 0 -59 18 -100 54 -127 l25 -19 -27 -49 -27 -49 -190 -72 c-244 -92 -261 -100 -317 -156 -48 -48 -68 -93 -51 -110 6 -6 89 21 229 74 120 47 221 83 222 82 4 -4 -185 -346 -224 -406 -12 -20 -20 -40 -17 -43 27 -27 128 24 179 90 17 21 80 127 139 234 60 107 113 198 118 201 5 4 27 13 50 20 35 12 41 11 45 -1 3 -8 24 -34 47 -57 35 -36 49 -43 81 -43 146 0 198 203 72 280 -42 25 -84 25 -143 0 -26 -11 -49 -20 -51 -20 -3 0 11 30 31 67 40 76 43 108 15 164 -26 51 -72 79 -129 79 -38 0 -49 -5 -87 -44z m131 -22 c26 -10 48 -62 41 -99 -11 -58 -70 -85 -124 -56 -42 23 -46 116 -5 147 19 14 61 18 88 8z m219 -285 c36 -29 37 -99 1 -134 -63 -64 -155 9 -125 99 18 55 77 72 124 35z m-314 -93 c-8 -8 -13 -7 -20 4 -12 20 -1 33 16 19 11 -9 12 -15 4 -23z"/>
 </g>
<g id="layer2" fill="#ff1f62" stroke="none">
 <path d="M683 1788 c-32 -37 -183 -242 -183 -250 0 -5 3 -7 8 -6 4 2 6 7 4 13 -4 11 -9 15 145 -119 l113 -97 57 62 c32 34 89 82 127 107 68 43 69 45 49 61 -12 9 -82 69 -156 134 -74 64 -137 117 -139 117 -3 0 -14 -10 -25 -22z"/>
 <path d="M1889 797 c-14 -74 -91 -207 -157 -273 -40 -40 -47 -62 -13 -45 22 12 244 -178 229 -196 -6 -7 -5 -14 2 -18 17 -10 146 140 185 215 33 64 35 61 -102 180 -70 62 -128 116 -128 120 0 11 -15 26 -16 17z"/>
 </g>
<g id="layer3" fill="#ff2566" stroke="none">
 <path d="M475 1508 c-63 -95 -111 -199 -138 -301 -31 -118 -31 -375 1 -492 52 -189 182 -387 335 -510 92 -74 247 -157 322 -173 28 -7 71 -16 97 -22 62 -13 316 -13 392 1 167 31 315 106 469 241 l39 33 -126 109 c-118 102 -125 110 -111 126 9 10 12 21 7 24 -9 6 -29 -11 -31 -26 -1 -5 -4 -8 -7 -7 -3 1 -18 -10 -32 -24 -42 -40 -138 -94 -211 -119 -55 -19 -87 -23 -191 -23 -136 0 -190 11 -280 56 -217 108 -350 321 -350 562 0 113 56 296 109 361 10 12 -11 34 -111 122 -68 59 -123 111 -123 115 0 27 -19 10 -60 -53z"/>
 </g>
<g id="layer4" fill="#ff0550" stroke="none">
 <path d="M979 2186 l-287 -384 27 -20 c14 -10 86 -71 158 -135 l133 -115 47 18 c297 111 645 -22 782 -300 67 -137 84 -257 57 -408 l-12 -73 128 -111 c78 -67 127 -116 124 -124 -3 -7 -1 -16 5 -19 10 -7 60 97 79 162 78 275 40 574 -102 795 -22 35 -214 296 -427 580 -285 381 -391 517 -406 517 -15 0 -96 -102 -306 -383z"/>
 <path d="M1840 681 c-6 -12 -6 -22 -1 -26 6 -3 15 3 21 14 6 12 6 22 1 26 -6 3 -15 -3 -21 -14z"/>
 <path d="M1981 306 c-7 -8 -8 -17 -3 -20 6 -3 15 1 21 8 7 8 8 17 3 20 -6 3 -15 -1 -21 -8z"/>
 <path d="M825 110 c-3 -5 8 -16 24 -25 18 -9 32 -11 36 -5 3 5 -8 16 -24 25 -18 9 -32 11 -36 5z"/>
 <path d="M1615 60 c-4 -6 -10 -8 -15 -5 -5 3 -11 1 -14 -4 -4 -5 -2 -12 3 -15 5 -4 12 -2 16 4 4 6 10 8 15 5 5 -3 11 -1 14 4 4 5 2 12 -3 15 -5 4 -12 2 -16 -4z"/>
 </g>

</svg>